<svg width="105" height="29" viewBox="0 0 105 29" fill="none" xmlns="http://www.w3.org/2000/svg">
<path d="M104.448 1.43051e-05L20.6676 25.9536C15.9963 27.86 12.0725 28.8163 8.89939 28.8163C5.30603 28.8163 2.69763 27.6032 1.08062 25.1737C0.0635699 23.6139 -0.234807 21.6362 0.182279 19.2377C0.599366 16.8392 1.70946 14.2859 3.50614 11.5686C5.00444 9.37128 7.45884 6.48376 10.8757 2.903C9.71676 4.66295 8.86689 6.59536 8.36038 8.62232C7.46204 12.3207 8.27055 15.0349 10.7859 16.768C11.9826 17.5758 13.6285 17.9812 15.7268 17.9812C17.4015 17.9812 46.7356 14.9049 48.8338 14.385L104.448 1.43051e-05Z" fill="black"/>
</svg>
